<?xml version="1.0" standalone="no"?>
<!DOCTYPE svg PUBLIC "-//W3C//DTD SVG 20010904//EN"
 "http://www.w3.org/TR/2001/REC-SVG-20010904/DTD/svg10.dtd">
<svg version="1.0" xmlns="http://www.w3.org/2000/svg"
 width="1157.000000pt" height="1280.000000pt" viewBox="0 0 1157.000000 1280.000000"
 preserveAspectRatio="xMidYMid meet">
<metadata>
Created by potrace 1.15, written by Peter Selinger 2001-2017
</metadata>
<g transform="translate(0.000000,1280.000000) scale(0.100000,-0.100000)"
fill="#000000" stroke="none">
<path d="M7318 12263 c-22 -5 -23 -25 -3 -62 8 -16 19 -46 24 -67 5 -22 19
-72 31 -113 11 -40 19 -74 18 -76 -2 -1 -20 -12 -40 -24 -21 -12 -48 -37 -60
-54 -12 -18 -42 -58 -67 -89 -42 -53 -46 -55 -65 -42 -42 29 -76 7 -76 -49 0
-27 16 -37 57 -37 22 0 25 -3 19 -27 -5 -25 -24 -304 -28 -423 -1 -25 0 -87 1
-138 2 -51 1 -95 -2 -98 -3 -3 -24 0 -47 6 -71 19 -192 15 -256 -9 -82 -31
-111 -47 -190 -106 -110 -82 -177 -180 -309 -450 l-112 -230 -8 65 c-28 257
-134 527 -286 730 -89 120 -146 179 -285 295 -252 212 -379 269 -625 282 -139
7 -178 -3 -234 -60 -33 -34 -39 -46 -36 -76 5 -55 18 -80 77 -148 31 -35 53
-63 50 -63 -3 0 -79 53 -169 118 -232 170 -413 291 -477 320 -97 44 -333 124
-382 129 -38 4 -49 2 -54 -11 -3 -9 -9 -14 -13 -11 -13 8 -53 -26 -47 -41 3
-7 1 -16 -4 -19 -19 -11 -10 -33 33 -81 56 -65 82 -103 101 -149 24 -56 21
-58 -36 -29 -28 14 -70 33 -92 41 -86 31 -290 83 -325 83 -56 0 -113 -45 -128
-100 -13 -50 -6 -67 67 -170 22 -30 40 -58 40 -62 0 -4 -32 23 -71 60 -91 86
-109 97 -223 137 -170 61 -319 53 -481 -25 -86 -41 -111 -59 -170 -122 -64
-68 -88 -107 -141 -223 -19 -44 -22 -55 -30 -137 -7 -64 21 -190 58 -266 26
-55 26 -51 -5 -135 -14 -37 -35 -125 -47 -195 -12 -70 -24 -138 -27 -151 -3
-19 -18 7 -64 115 l-60 139 20 60 c42 121 22 219 -59 291 -20 18 -23 25 -12
35 23 24 13 31 -33 25 -25 -4 -45 -5 -45 -3 0 3 11 24 24 48 14 24 28 69 32
99 7 51 6 54 -10 41 -14 -12 -18 -11 -31 5 -8 10 -15 25 -15 33 0 10 -7 8 -24
-8 -27 -25 -51 -20 -43 10 7 25 -1 24 -25 -3 -30 -34 -45 -68 -51 -116 -10
-77 -47 -85 -142 -29 -27 16 -63 31 -80 34 -37 6 -104 -22 -176 -74 -117 -84
-159 -158 -167 -295 -2 -49 0 -100 6 -117 12 -35 7 -39 -20 -14 -17 15 -18 15
-18 -5 0 -18 -6 -22 -34 -22 -30 0 -34 3 -40 33 -6 34 -47 67 -83 67 -12 0
-30 17 -47 44 -35 55 -71 90 -85 81 -18 -10 -12 -93 9 -137 37 -78 19 -123
-28 -68 -53 63 -81 90 -91 90 -6 0 -11 -20 -11 -46 0 -38 -3 -45 -16 -40 -13
5 -15 1 -9 -21 3 -16 13 -35 21 -44 21 -23 17 -29 -18 -29 -18 -1 -64 -12
-103 -25 -68 -23 -69 -24 -25 -20 25 2 57 1 72 -2 l28 -5 -29 -34 c-44 -50
-76 -111 -101 -192 -21 -67 -22 -78 -11 -145 15 -87 37 -133 99 -203 47 -55
180 -148 227 -160 14 -3 27 -10 30 -14 3 -5 29 -20 58 -34 28 -14 63 -35 77
-46 l25 -20 -98 0 c-105 0 -222 -26 -341 -77 -34 -14 -85 -34 -114 -44 -90
-31 -219 -123 -319 -228 -115 -119 -144 -165 -145 -230 0 -55 52 -189 106
-273 36 -56 147 -170 206 -212 136 -97 302 -192 410 -234 57 -22 80 -25 180
-25 120 1 247 21 299 47 l30 16 -20 -58 c-10 -31 -21 -62 -23 -68 -3 -9 -20
-8 -63 2 -341 82 -600 -32 -741 -327 -58 -121 -66 -157 -66 -304 0 -114 3
-142 28 -225 68 -230 169 -380 303 -448 62 -32 203 -70 285 -78 l73 -6 -3 -76
c-6 -129 31 -209 124 -270 38 -26 58 -32 99 -32 70 0 88 -19 74 -78 -5 -23 -6
-54 -3 -69 6 -23 5 -25 -12 -18 -10 5 -53 10 -95 13 -69 4 -81 1 -136 -27 -72
-36 -126 -95 -149 -164 -24 -72 -15 -190 21 -262 64 -131 239 -217 348 -171
35 14 38 14 44 -2 60 -170 128 -258 245 -318 56 -29 133 -37 193 -21 24 7 28
6 18 -4 -7 -7 -13 -25 -13 -41 0 -15 -5 -38 -11 -52 -9 -19 -9 -29 0 -39 6 -8
16 -74 21 -148 12 -150 16 -158 97 -225 34 -28 77 -49 139 -70 l90 -29 -31
-59 c-29 -57 -30 -64 -30 -190 l0 -131 38 -73 c65 -127 103 -173 190 -234 112
-79 194 -118 274 -130 38 -6 93 -15 123 -21 30 -6 60 -9 65 -7 6 1 33 4 61 5
47 2 53 0 69 -27 9 -16 15 -31 13 -32 -1 -2 -17 -11 -35 -19 -63 -33 -73 -65
-80 -259 -7 -206 -3 -236 40 -278 60 -60 135 -75 231 -46 l47 14 30 -63 c16
-35 53 -90 82 -123 44 -51 60 -62 111 -77 32 -9 91 -19 130 -22 65 -5 74 -3
109 21 21 15 43 24 48 21 5 -4 8 -23 7 -45 -3 -92 128 -212 233 -214 27 -1 49
-3 49 -5 0 -2 -17 -27 -38 -55 -51 -67 -67 -100 -86 -173 -20 -76 -20 -134 0
-247 20 -118 49 -171 129 -243 114 -100 205 -134 311 -114 50 10 54 6 77 -61
19 -57 104 -186 148 -222 39 -33 114 -72 189 -98 82 -28 217 -25 295 8 22 9
50 10 105 4 41 -5 83 -9 92 -10 10 0 32 -16 50 -36 22 -24 38 -34 52 -30 13 3
32 -9 65 -44 25 -27 59 -54 74 -60 34 -12 168 -13 220 -1 62 15 57 -9 -20
-102 -133 -157 -162 -214 -188 -367 -17 -98 -11 -130 35 -179 21 -22 29 -23
99 -19 63 4 89 11 151 43 91 45 190 123 260 205 29 33 56 60 60 60 4 0 19 -16
34 -34 l26 -35 -15 -93 c-8 -51 -13 -124 -12 -161 l3 -68 47 -30 c47 -29 119
-40 132 -20 3 6 42 32 86 58 95 56 179 146 276 296 34 53 69 97 77 97 32 0
156 49 191 76 68 52 158 193 232 364 71 166 98 274 121 485 l18 159 22 -36
c31 -50 43 -58 109 -73 80 -19 117 -18 144 4 16 13 29 16 39 11 19 -10 122 13
155 34 14 9 32 30 40 46 12 23 22 30 44 30 29 0 46 14 66 54 6 11 20 22 33 24
35 5 65 56 58 98 -7 33 -6 34 18 28 13 -3 34 -3 45 1 27 8 64 70 57 93 -5 15
5 25 44 46 49 27 77 59 72 84 -2 8 9 12 31 12 29 0 42 8 81 54 25 30 46 61 46
70 0 9 8 16 19 16 23 0 61 45 61 72 0 10 10 22 23 27 31 12 87 77 87 101 0 12
5 17 14 14 16 -6 76 63 76 88 0 11 5 15 14 12 8 -3 23 8 36 26 21 30 21 32 5
50 -17 19 -17 21 8 44 41 38 37 82 -12 134 l-40 43 15 41 c13 36 12 44 -1 65
-9 13 -25 23 -39 23 -45 0 -56 10 -56 49 0 43 -23 81 -51 81 -10 0 -19 4 -19
8 0 16 45 50 69 54 26 3 67 62 92 133 8 20 20 40 28 43 14 5 61 -43 61 -63 0
-16 80 -105 94 -105 7 0 22 -9 34 -20 19 -18 26 -19 74 -9 29 6 60 17 69 25 8
8 24 14 35 14 10 0 30 9 44 20 14 11 30 20 35 20 18 0 125 90 125 104 0 7 7
19 16 27 8 7 25 31 36 53 11 23 31 53 43 68 25 29 65 179 65 240 0 20 -14 78
-30 131 -36 111 -92 195 -170 252 -52 38 -55 42 -42 63 10 15 56 -4 157 -63
115 -66 137 -75 203 -75 62 0 66 1 134 54 74 58 118 109 118 137 0 19 20 70
61 152 49 99 79 210 79 292 0 45 -5 79 -12 87 -7 7 -18 28 -25 45 l-11 33 30
-16 c38 -19 99 -22 135 -5 67 32 80 42 108 87 27 43 30 55 28 120 l-1 71 39
12 c86 26 148 113 149 209 0 50 1 52 28 52 42 0 114 41 139 79 35 52 32 130
-6 187 l-30 43 37 7 c74 13 136 62 153 119 11 35 20 46 66 70 44 23 55 34 63
65 5 20 19 47 30 60 27 31 27 106 -1 165 -41 86 -139 144 -226 132 -47 -6
-123 13 -123 30 0 7 12 16 28 19 143 35 226 182 177 318 -8 22 -12 43 -10 47
3 4 -4 9 -15 12 -11 3 -20 9 -20 14 0 10 62 62 175 146 l70 53 9 67 c9 66 10
67 45 77 38 10 111 55 111 69 0 4 16 24 36 43 29 30 36 45 41 91 6 61 -7 113
-43 167 -31 45 -30 57 6 65 40 9 60 30 60 63 0 15 7 36 15 46 8 11 15 35 15
53 0 47 -34 138 -65 175 -18 21 -25 38 -20 52 39 134 28 219 -39 292 -39 43
-46 47 -98 52 -46 3 -63 0 -91 -17 -49 -30 -68 -26 -102 22 -40 55 -123 97
-185 94 -42 -2 -45 0 -48 25 l-3 26 123 -5 c68 -2 144 -8 170 -12 78 -13 95
27 26 59 -24 10 -61 30 -83 43 l-40 25 34 19 c54 30 174 127 202 164 46 61 87
142 104 208 33 130 -14 308 -108 401 -53 54 -167 107 -238 112 -31 3 -60 7
-66 11 -6 4 -7 26 -1 64 18 129 -18 375 -78 525 -34 85 -35 90 -34 225 1 104
-2 147 -14 175 -9 20 -13 44 -10 52 4 11 -14 36 -56 77 l-62 60 39 -6 c21 -4
46 -9 56 -12 27 -7 20 5 -13 22 -17 9 -28 20 -25 25 6 10 -43 15 -132 14 -41
-1 -43 0 -45 30 -1 27 -4 53 -7 79 -1 4 -16 -3 -33 -16 -18 -14 -39 -22 -46
-20 -18 7 -59 -33 -66 -63 -10 -40 -23 -27 -48 49 -16 49 -28 72 -38 71 -9 -1
-23 10 -33 23 -18 23 -18 23 13 41 69 38 120 72 120 81 0 5 -17 0 -37 -10 -27
-14 -39 -16 -44 -7 -8 13 -119 -36 -119 -53 0 -14 -20 -10 -26 5 -3 9 17 44
50 84 30 39 58 82 62 96 3 14 10 29 15 32 5 3 9 16 9 30 0 14 -4 22 -10 19 -5
-3 -10 1 -10 9 0 21 -3 20 -51 -10 -23 -14 -48 -23 -56 -20 -9 4 -30 -4 -47
-18 l-31 -23 -2 84 c-1 60 -7 92 -18 110 -15 23 -21 25 -63 19 -29 -4 -56 -15
-72 -31 -23 -22 -29 -23 -44 -12 -11 8 -17 20 -14 28 3 8 -1 20 -8 27 -10 9
-11 20 -4 38 14 37 13 39 -11 18 -12 -10 -28 -34 -36 -51 -7 -18 -18 -33 -23
-33 -13 0 -13 16 0 41 8 15 7 19 -4 19 -18 0 -36 -30 -36 -58 0 -21 -37 -42
-75 -42 -13 0 -31 -8 -41 -17 -19 -19 -60 -19 -83 0 -12 10 -13 9 -6 -8 12
-27 12 -102 0 -114 -6 -4 -33 -11 -61 -15 l-51 -6 -65 87 c-135 180 -194 220
-355 235 -72 6 -101 14 -124 30 -25 19 -33 20 -49 10 -27 -16 -26 -17 -22 28
3 25 0 40 -7 40 -6 0 -11 -11 -11 -24 0 -32 -21 -38 -51 -15 -31 24 -56 24
-71 0 -10 -17 -20 -19 -80 -14 -73 6 -84 -2 -40 -30 l27 -18 -27 6 c-16 3 -28
1 -28 -5 0 -5 -18 -10 -40 -10 -43 0 -45 -2 -30 -31 7 -12 7 -19 1 -19 -5 0
-22 -5 -37 -10 l-27 -11 23 -24 c13 -14 18 -25 12 -25 -6 0 -14 5 -17 10 -10
16 -28 11 -21 -6 3 -9 3 -14 -1 -12 -5 2 -53 25 -108 51 -55 27 -113 55 -130
63 -16 8 -59 42 -95 76 -76 70 -215 176 -248 189 -13 5 -56 11 -96 14 -40 2
-80 7 -89 11 -29 11 -75 170 -78 273 -2 40 -7 55 -23 67 -11 8 -23 13 -26 13
-3 -1 -13 -3 -22 -6z m1222 -713 c0 -39 -8 -38 -26 5 -18 45 -18 48 6 35 13
-7 20 -21 20 -40z m-4566 -866 c154 -97 286 -181 291 -186 6 -5 -20 5 -57 21
-148 67 -365 110 -496 97 -61 -5 -203 -35 -243 -51 -13 -5 -9 13 17 90 39 110
44 192 19 288 -8 32 -15 65 -15 73 0 8 43 -21 101 -70 62 -52 211 -154 383
-262z m4798 156 c49 -16 96 -30 105 -30 11 0 14 -6 10 -22 -9 -35 -92 -272
-99 -283 -32 -51 -77 -252 -78 -342 0 -43 27 -83 58 -83 16 0 16 -1 -27 -68
l-33 -52 -37 33 c-22 19 -54 37 -75 41 -37 7 -38 8 -31 44 4 20 7 41 8 47 3
17 -43 17 -84 1 -46 -19 -79 -21 -79 -5 0 6 20 37 45 68 167 209 191 247 216
351 14 60 18 258 6 303 -4 15 -5 27 -1 27 3 0 46 -13 96 -30z m-6352 -340 c0
-5 -4 -10 -10 -10 -5 0 -10 5 -10 10 0 6 5 10 10 10 6 0 10 -4 10 -10z m92
-156 c-14 -30 -29 -54 -32 -54 -7 0 -2 105 6 128 3 10 9 9 28 -3 l25 -17 -27
-54z m7381 0 c15 -43 31 -90 36 -104 16 -48 93 -205 109 -224 9 -10 16 -21 15
-25 -6 -14 39 -131 67 -175 36 -56 36 -60 6 -79 -24 -16 -24 -16 -37 36 -40
167 -207 395 -366 500 l-63 41 68 33 c37 19 78 45 92 58 13 14 29 24 35 22 5
-2 23 -39 38 -83z m-7189 -32 c2 -4 -5 -19 -16 -32 -14 -18 -18 -20 -14 -7 3
10 6 25 6 33 0 15 16 19 24 6z m7941 -95 c48 -149 71 -408 44 -486 -11 -31
-14 -32 -47 -26 -19 4 -70 26 -111 49 -42 24 -84 46 -95 49 -13 5 -15 11 -9
20 6 6 13 21 16 32 3 11 15 45 26 75 12 30 21 63 21 73 0 24 45 157 74 221 13
28 27 62 31 75 10 32 18 17 50 -82z m-7722 63 c29 -1 80 2 115 6 l62 7 -25
-58 c-52 -116 -69 -215 -69 -390 -1 -149 1 -165 25 -228 15 -37 23 -70 18 -73
-5 -3 -9 2 -9 10 0 24 -17 28 -52 12 -18 -8 -60 -18 -93 -21 -62 -7 -137 -34
-149 -54 -4 -6 -12 -11 -17 -11 -6 0 -8 4 -5 9 3 4 6 67 7 138 2 139 -7 173
-43 173 -20 0 -20 2 -13 118 4 64 9 131 10 147 1 17 18 68 37 115 20 47 38 92
41 101 4 14 14 15 56 8 29 -4 75 -8 104 -9z m4785 -179 c28 -18 52 -34 52 -35
0 -1 -15 0 -32 2 -18 1 -71 -8 -117 -22 -46 -14 -86 -24 -89 -22 -2 3 5 29 16
58 10 29 22 70 26 91 l7 38 42 -38 c23 -21 66 -53 95 -72z m-2864 -101 c151
-198 238 -348 253 -435 5 -27 6 -103 2 -167 -5 -91 -11 -126 -28 -158 -11 -22
-21 -46 -21 -52 0 -6 -14 -23 -31 -38 l-31 -26 9 -72 c6 -44 6 -75 0 -81 -6
-6 -4 -21 4 -40 13 -29 17 -31 65 -31 37 0 54 -4 58 -15 4 -12 11 -13 33 -4
54 20 145 84 233 163 138 124 296 248 350 276 25 12 82 44 126 71 45 27 90 49
100 49 9 0 25 6 33 14 24 21 151 86 168 86 9 0 33 -20 54 -44 21 -24 54 -51
74 -60 35 -17 50 -34 18 -22 -42 16 -158 18 -212 3 -31 -9 -81 -21 -112 -27
-31 -6 -72 -19 -90 -29 -240 -126 -328 -178 -361 -215 -21 -22 -64 -70 -95
-105 -32 -35 -73 -91 -92 -125 -19 -33 -38 -62 -43 -64 -4 -2 -8 -20 -8 -39 0
-30 -3 -34 -17 -28 -47 19 -89 26 -121 20 -80 -15 -144 -67 -172 -140 -24 -64
-6 -205 26 -205 19 0 49 -69 36 -82 -13 -13 -71 49 -78 82 -30 139 -132 223
-251 206 l-43 -6 0 44 c0 29 -10 62 -30 99 -16 31 -30 62 -30 68 0 20 71 101
108 122 24 14 32 25 29 39 -4 13 12 35 55 76 70 67 139 197 159 300 18 96 7
250 -26 347 -38 113 -106 240 -172 321 -31 38 -44 58 -29 44 15 -14 60 -68
100 -120z m-3066 -30 c38 -63 83 -140 100 -171 l32 -57 -117 116 -118 115 3
70 c4 85 5 85 100 -73z m-113 -149 l20 -24 -27 18 c-15 9 -25 21 -22 27 3 5 7
8 8 6 0 -2 10 -14 21 -27z m3935 -78 c-7 -54 -15 -134 -19 -178 -4 -44 -15
-94 -24 -112 -17 -32 -106 -116 -186 -175 -51 -37 -54 -58 21 172 59 181 66
196 127 270 25 30 55 72 66 92 10 21 21 35 23 33 2 -2 -1 -48 -8 -102z m-3926
-123 c49 -49 86 -90 82 -90 -14 0 -191 52 -207 61 -10 5 -16 17 -14 27 6 31
35 92 43 92 5 0 48 -40 96 -90z m5564 68 c-2 -18 -10 -23 -40 -25 -21 -1 -38
0 -38 3 0 6 63 44 73 44 5 0 7 -10 5 -22z m-1109 -90 c-38 -29 -59 -40 -59
-29 0 5 5 13 10 16 6 4 20 25 32 48 l21 42 10 -29 c8 -25 6 -32 -14 -48z
m-4513 -110 c201 -164 462 -434 440 -455 -3 -3 -11 8 -19 24 -8 15 -39 45 -68
66 -84 59 -297 173 -390 208 -46 18 -91 37 -99 44 -8 7 -31 16 -50 20 -88 19
-88 20 -13 77 37 28 74 60 82 71 17 24 24 21 117 -55z m1534 -88 c0 -3 -28
-20 -61 -38 -33 -19 -78 -52 -99 -74 l-38 -41 -17 27 c-16 25 -16 28 13 98
l31 73 58 11 c58 10 58 10 85 -20 15 -17 28 -33 28 -36z m3468 18 c-50 -67
-72 -144 -71 -248 1 -186 42 -286 175 -428 35 -38 33 -47 -8 -32 -16 6 -66 12
-110 12 -75 2 -85 -1 -114 -25 -17 -15 -36 -27 -41 -27 -5 0 -39 -18 -74 -40
l-66 -39 32 42 c17 23 48 65 70 92 44 57 44 54 60 270 14 182 7 225 -56 343
l-33 62 50 0 c44 0 119 17 173 40 35 15 38 11 13 -22z m-3369 -110 c65 -59
211 -173 257 -200 l39 -23 -165 -6 c-91 -3 -177 -9 -191 -13 -18 -5 -29 -3
-38 8 -19 22 -64 20 -86 -4 -24 -27 -34 -25 -45 6 -7 19 -7 31 1 40 7 8 9 17
5 21 -3 3 5 21 19 38 13 18 21 35 18 39 -5 5 125 134 136 136 2 0 25 -19 50
-42z m-344 -128 c-7 -8 -23 -35 -35 -58 -41 -82 -34 -23 11 95 l11 28 13 -25
c11 -21 11 -28 0 -40z m7068 -121 c-8 -10 -35 -20 -60 -24 -25 -4 -53 -9 -62
-13 -9 -3 11 24 44 61 l60 67 16 -37 c14 -33 15 -40 2 -54z m-1209 15 l22 -27
-46 -43 c-48 -45 -99 -140 -121 -226 -13 -53 -24 -61 -33 -23 -3 13 -14 32
-24 42 -22 22 -72 90 -72 97 0 3 5 6 11 6 17 0 177 129 205 166 15 19 28 34
31 34 2 0 14 -12 27 -26z m-6914 -34 c8 -5 12 -11 9 -14 -3 -3 -14 1 -25 9
-21 16 -8 20 16 5z m1139 -54 c-9 -8 -10 -7 -5 7 3 10 7 24 7 30 1 7 3 4 6 -7
3 -10 -1 -23 -8 -30z m1650 -31 c-33 -34 -35 -34 -58 -19 l-23 17 54 21 c29
12 55 21 58 19 2 -2 -12 -19 -31 -38z m-614 -24 c33 -6 98 -13 144 -17 l83 -7
-78 -41 c-44 -22 -93 -51 -111 -63 -17 -13 -34 -23 -37 -23 -4 0 -17 24 -30
53 -12 28 -35 67 -51 85 l-28 33 24 -5 c13 -3 51 -10 84 -15z m3895 -19 c57 2
190 -14 196 -23 3 -5 2 -25 -2 -45 -7 -39 -80 -118 -132 -145 -15 -8 -38 -21
-52 -30 -271 -179 -417 -221 -669 -193 -70 8 -138 11 -153 8 -21 -4 -34 1 -54
21 -31 31 -27 40 12 25 16 -6 52 -16 79 -21 63 -13 333 -13 348 -1 7 5 26 9
43 9 28 0 74 26 116 66 10 9 22 17 28 17 16 0 88 69 111 107 12 19 31 38 43
42 18 7 21 17 22 83 1 75 10 110 23 90 4 -6 22 -10 41 -10z m465 -32 c-3 -5
-16 -10 -28 -9 -21 0 -21 1 -2 9 28 12 37 12 30 0z m-6290 -178 c16 -12 26
-24 23 -27 -5 -5 -265 77 -271 86 -2 2 -2 23 1 45 l4 42 108 -62 c59 -33 120
-71 135 -84z m7419 104 c-4 -12 -15 -37 -25 -56 l-18 -35 -1 35 c0 19 -3 44
-6 56 -5 18 -1 21 25 21 27 0 30 -3 25 -21z m-7639 -157 c5 -5 -4 -9 -23 -9
-22 0 -32 5 -32 16 0 11 6 14 23 9 12 -4 26 -11 32 -16z m1370 -161 c50 -44
107 -91 128 -104 20 -14 37 -26 37 -28 0 -9 -51 8 -61 20 -14 17 -80 18 -129
3 -19 -6 -60 -12 -92 -13 -48 -1 -56 1 -53 15 2 10 -3 20 -11 23 -11 4 -9 16
13 60 21 43 30 53 40 44 7 -6 13 -19 13 -29 0 -34 17 -28 23 9 10 56 -11 71
-58 43 -33 -19 -37 -20 -30 -4 4 10 8 25 8 33 0 8 7 20 16 27 21 15 45 0 156
-99z m2255 22 c19 -15 53 -37 75 -49 l40 -21 -43 0 c-47 0 -106 -21 -137 -49
-11 -10 -33 -21 -50 -25 -16 -4 -38 -9 -47 -12 -28 -8 -21 14 17 59 20 23 43
65 51 94 14 50 17 52 37 42 12 -7 38 -24 57 -39z m741 8 c-17 -18 -36 -45 -42
-60 -9 -23 -18 -28 -45 -28 -19 0 -34 5 -34 10 0 6 4 10 10 10 5 0 35 23 65
50 62 56 93 68 46 18z m3195 -85 c-10 -10 -19 5 -10 18 6 11 8 11 12 0 2 -7 1
-15 -2 -18z m-5828 -155 c33 -10 126 -4 166 12 20 7 21 4 22 -79 1 -136 49
-261 131 -345 53 -53 81 -70 133 -80 97 -19 170 -39 170 -48 0 -6 -13 -23 -30
-38 -36 -33 -39 -70 -9 -111 24 -34 23 -34 -24 -14 -46 19 -110 19 -147 0 -28
-14 -30 -14 -41 7 -7 13 -16 26 -20 29 -5 3 -10 18 -12 35 -2 16 -9 39 -15 51
-7 12 -12 35 -12 50 0 38 -32 99 -65 125 -15 12 -40 49 -56 82 -16 34 -36 72
-43 86 -8 14 -22 45 -32 69 -18 43 -74 123 -74 105 0 -5 11 -26 25 -46 14 -20
25 -41 25 -45 0 -4 -5 0 -11 10 -5 9 -16 17 -22 17 -7 0 -21 13 -30 30 -10 16
-34 37 -53 46 -19 9 -42 30 -50 46 l-15 29 28 -7 c15 -3 43 -10 61 -16z m6308
-208 c12 0 13 -4 2 -22 -6 -13 -12 -56 -12 -97 0 -69 1 -75 31 -101 17 -15 39
-32 49 -38 26 -14 15 -21 -45 -31 -76 -12 -111 -67 -111 -176 0 -69 23 -127
70 -177 17 -18 20 -36 20 -103 0 -81 0 -81 38 -116 56 -54 160 -129 178 -129
8 0 25 -5 37 -12 12 -6 60 -13 107 -14 47 -1 103 -6 124 -11 l40 -8 -26 -17
c-51 -33 -97 -165 -68 -194 6 -6 6 -23 -1 -47 -13 -49 -34 -36 -42 27 -7 48
-37 108 -52 102 -5 -2 -27 5 -47 15 -44 22 -116 24 -162 5 l-34 -14 -7 56
c-15 122 -83 284 -147 353 -31 34 -110 95 -170 134 -16 9 -28 20 -28 24 0 3
20 33 45 66 106 142 166 299 168 443 1 73 4 91 15 87 8 -3 20 -5 28 -5z
m-2599 -200 c40 -19 71 -39 69 -45 -2 -9 -168 -74 -189 -75 -5 0 -5 4 -2 10 3
5 11 38 16 72 10 64 16 81 27 76 4 -2 40 -19 79 -38z m1306 -406 c11 -14 17
-27 15 -29 -1 -2 -46 -31 -98 -66 -52 -34 -104 -70 -115 -79 -12 -10 -28 -15
-42 -11 -20 5 -14 12 50 63 40 31 92 77 117 102 24 25 47 46 50 46 3 0 13 -12
23 -26z m-1129 -55 c5 -26 0 -38 -38 -82 -24 -29 -56 -74 -71 -100 -26 -45
-30 -48 -58 -43 -17 3 -31 7 -33 9 -1 1 -4 47 -6 102 l-5 100 81 21 c116 30
122 30 130 -7z m-5410 -145 c4 -9 4 -19 1 -22 -6 -6 -35 18 -35 29 0 16 28 10
34 -7z m-264 -28 c0 -2 -9 -6 -20 -9 -11 -3 -20 -1 -20 4 0 5 9 9 20 9 11 0
20 -2 20 -4z m3148 -28 c2 -9 -12 -24 -31 -36 -84 -49 -103 -203 -32 -262 13
-11 15 -25 9 -80 -4 -47 -1 -84 10 -129 9 -35 14 -66 12 -68 -8 -8 -226 52
-226 62 0 1 7 19 15 38 19 47 19 97 -1 147 -9 23 -15 42 -13 43 2 1 22 11 43
22 22 11 52 37 67 58 28 38 54 130 45 158 -20 62 -18 68 21 71 48 4 77 -5 81
-24z m2952 -26 c0 -5 -15 -16 -34 -24 -48 -23 -175 -137 -222 -198 l-39 -51
-18 43 c-10 23 -29 57 -42 74 l-24 32 61 12 c79 15 179 51 248 89 58 32 70 36
70 23z m-1787 -275 c60 -81 34 -77 -67 9 l-78 66 20 21 c11 12 25 33 32 46 12
23 13 21 40 -43 16 -37 39 -82 53 -99z m-4477 31 c-9 -12 -16 -19 -16 -15 0
11 24 47 28 42 2 -2 -3 -14 -12 -27z m2734 -251 c0 -7 -16 -21 -35 -30 -40
-19 -44 -13 -13 20 24 25 48 30 48 10z m2153 -82 c31 -5 37 -10 32 -23 -23
-60 -49 -179 -54 -248 l-6 -82 -33 28 -33 27 18 44 c19 47 25 175 11 237 -7
29 -5 33 10 29 9 -3 34 -8 55 -12z m3493 -6 c55 -33 39 -60 -20 -35 -27 11
-33 19 -29 35 7 26 8 26 49 0z m-5871 -49 c-20 -22 -31 -20 -22 5 4 8 14 15
23 15 16 0 16 -2 -1 -20z m-1981 -25 c4 -10 -8 -24 -36 -41 -38 -24 -42 -25
-57 -9 -15 15 -15 17 3 31 11 8 28 14 37 14 10 0 21 5 24 10 9 15 22 12 29 -5z
m7726 -267 c0 -10 -13 -24 -30 -33 -35 -18 -48 -56 -32 -99 15 -39 9 -43 -26
-18 -15 11 -40 24 -55 27 l-27 7 20 27 c11 14 39 52 61 84 l40 57 24 -17 c13
-10 25 -26 25 -35z m-4316 -29 c17 -20 51 -50 75 -67 44 -32 44 -32 15 -32
-108 0 -160 -49 -241 -225 -26 -57 -26 -275 0 -322 9 -18 17 -34 17 -36 0 -3
-26 -5 -59 -4 -73 0 -133 -27 -196 -91 -26 -26 -57 -69 -69 -97 -15 -31 -35
-57 -54 -68 -31 -18 -31 -18 -37 6 -5 19 6 36 63 93 110 111 196 277 228 441
22 114 16 332 -11 423 -4 13 13 15 117 14 l121 0 31 -35z m-1651 -106 c-13
-46 -6 -234 11 -306 24 -103 27 -101 -64 -59 -56 25 -62 30 -72 69 -12 48 -25
62 -77 80 -48 17 -91 16 -146 -3 -26 -8 -52 -13 -58 -11 -7 2 8 10 33 17 85
23 100 33 151 91 37 43 62 62 97 74 26 8 63 29 82 45 44 37 52 37 43 3z m3452
-251 c9 -35 25 -85 35 -112 10 -26 16 -51 13 -54 -17 -17 -44 -3 -62 32 -20
39 -58 62 -131 80 -31 7 -37 15 -59 71 -14 38 -39 79 -61 101 l-38 38 86 30
c48 17 107 39 132 50 l45 19 12 -96 c6 -53 19 -125 28 -159z m-4871 122 c9 -3
16 -17 16 -30 0 -22 -1 -23 -32 -9 -57 23 -41 61 16 39z m7022 -41 c11 -47 44
-93 85 -119 24 -15 39 -32 39 -44 0 -11 -2 -20 -5 -20 -10 0 -55 32 -86 61
-19 18 -50 32 -87 39 -89 19 -90 19 -64 38 12 10 39 29 59 45 19 15 40 27 44
27 5 0 12 -12 15 -27z m-6484 -73 c29 -11 78 -20 108 -21 l55 -1 -34 -14 c-18
-8 -56 -19 -84 -24 -27 -6 -56 -15 -63 -21 -10 -8 -15 -4 -20 18 -4 15 -13 40
-21 56 -16 33 -10 33 59 7z m1023 -406 c6 -9 30 -44 55 -78 79 -106 167 -142
378 -153 107 -5 122 -8 122 -23 0 -10 -6 -20 -12 -22 -28 -10 -110 1 -136 18
-39 26 -125 31 -157 10 -37 -24 -65 -75 -65 -118 0 -54 37 -125 72 -137 30
-11 46 -37 32 -51 -5 -4 -36 -5 -69 -1 -66 8 -119 -6 -214 -53 -35 -18 -62
-25 -77 -22 -28 7 -29 17 -9 56 19 37 8 44 -55 35 -39 -5 -64 -2 -115 16 -36
13 -65 26 -65 29 0 3 14 11 30 19 46 20 126 106 154 165 45 95 59 200 41 300
l-8 39 44 -6 c26 -3 48 -13 54 -23z m-1498 -33 c13 -31 13 -32 -9 -29 -18 2
-24 10 -26 37 -4 42 17 38 35 -8z m-521 -83 l16 -31 -38 -33 c-22 -18 -42 -33
-46 -34 -3 0 3 24 13 53 11 28 22 58 24 65 7 19 13 15 31 -20z m6564 -12 c0
-8 9 -33 20 -57 11 -24 20 -58 20 -76 0 -26 -3 -30 -20 -26 -11 3 -26 15 -32
27 -20 38 -61 81 -77 81 -13 0 -15 -9 -13 -44 3 -39 2 -42 -17 -36 -19 6 -20
4 -9 -27 6 -18 15 -37 19 -42 16 -18 9 -26 -21 -26 -28 0 -30 3 -30 38 0 20
-9 57 -20 81 -24 52 -24 51 -2 51 9 0 51 16 92 34 87 40 90 40 90 22z m-5805
-88 c4 -18 14 -46 22 -63 22 -43 108 -133 170 -178 49 -36 60 -57 29 -57 -15
0 -90 -53 -138 -98 -20 -19 -47 -59 -58 -88 -21 -51 -23 -53 -53 -47 -18 3
-34 8 -36 10 -3 2 18 36 46 76 84 121 84 121 67 218 -16 88 -55 189 -87 225
-14 17 -15 23 -5 27 28 11 37 6 43 -25z m7063 -73 c18 -38 15 -41 -13 -15 -28
26 -32 40 -12 40 8 0 19 -11 25 -25z m-1160 -888 c31 -19 33 -22 27 -61 -14
-90 -32 -100 -65 -38 -11 20 -31 55 -44 78 -41 74 -41 76 7 57 23 -9 57 -26
75 -36z m-4510 -209 l44 -13 -5 -44 c-3 -24 0 -57 5 -73 6 -16 8 -31 6 -34 -3
-2 -23 14 -46 35 -23 22 -52 41 -64 43 -13 2 -22 6 -20 11 1 4 2 32 2 64 0 53
1 55 18 40 9 -8 37 -21 60 -29z m-198 -48 c0 -5 -5 -10 -11 -10 -5 0 -7 5 -4
10 3 6 8 10 11 10 2 0 4 -4 4 -10z m1333 -11 c36 -19 52 -21 124 -15 45 3 84
2 87 -2 3 -5 -17 -16 -43 -26 -54 -19 -161 -103 -209 -164 -40 -50 -92 -154
-99 -198 -3 -19 -7 -34 -8 -34 -27 0 -35 17 -35 75 0 59 -2 66 -34 97 -52 49
-51 68 6 84 60 18 94 58 103 122 7 54 13 66 35 75 24 9 29 8 73 -14z m2465
-40 c12 -19 11 -19 -8 -9 -11 6 -20 15 -20 20 0 17 15 11 28 -11z m-3154 -30
c33 -26 148 -42 162 -23 5 7 23 15 39 18 28 6 32 4 44 -29 7 -20 11 -38 9 -39
-1 -1 -22 -8 -46 -15 -56 -16 -111 -65 -135 -121 -20 -47 -75 -112 -87 -105
-4 3 -5 36 -2 73 6 84 -8 131 -55 183 -25 28 -33 44 -28 59 9 27 63 27 99 -1z
m2676 -64 c7 -8 23 -15 36 -15 23 0 22 -3 -20 -57 -52 -68 -80 -144 -74 -208
4 -55 -10 -54 -37 3 -12 23 -26 47 -32 53 -9 9 -5 21 18 48 34 43 49 88 49
148 0 39 2 43 24 43 13 0 29 -7 36 -15z m676 -104 c20 -56 20 -61 4 -61 -11 0
-20 11 -23 30 -4 16 -16 49 -27 72 -25 52 -25 54 2 36 14 -9 32 -41 44 -77z
m-1522 40 c20 -16 50 -33 67 -36 16 -4 29 -10 29 -15 0 -4 16 -31 36 -59 l35
-52 -60 -64 c-32 -35 -62 -73 -66 -84 -11 -35 -22 -24 -28 27 -7 61 -38 144
-82 216 -29 49 -32 60 -22 77 17 27 48 24 91 -10z m-2147 -271 c18 0 38 -9 52
-24 30 -32 13 -40 -47 -23 -63 19 -95 12 -140 -29 -44 -41 -52 -41 -82 -9
l-24 25 51 53 c28 28 56 62 62 73 10 21 12 21 54 -22 33 -32 52 -44 74 -44z
m-529 -42 c20 -20 14 -32 -35 -84 -27 -27 -53 -60 -59 -74 l-10 -25 -27 27
c-34 34 -34 40 3 61 16 10 47 38 67 63 41 48 43 50 61 32z m3661 -177 l44 -19
-49 -7 c-27 -4 -56 -9 -65 -11 -20 -6 -30 16 -35 75 l-4 45 33 -32 c17 -17 52
-40 76 -51z m-3019 -159 c0 -10 -14 -30 -31 -45 -30 -26 -31 -30 -27 -87 5
-67 24 -101 79 -138 29 -20 42 -23 83 -17 27 3 57 10 67 16 29 15 49 1 43 -30
-8 -38 30 -82 74 -86 44 -3 48 -10 13 -25 -25 -10 -38 -9 -86 9 -60 23 -132
27 -237 16 l-66 -7 9 43 c8 36 7 52 -10 89 -10 25 -24 59 -31 76 -6 17 -34 54
-61 82 -32 33 -47 56 -43 66 5 12 11 13 24 6 34 -18 85 -11 130 19 53 34 70
38 70 13z m2046 -191 c16 -12 46 -35 68 -52 33 -25 35 -29 17 -29 -26 0 -112
42 -158 77 l-32 25 22 39 22 39 16 -38 c9 -21 30 -49 45 -61z m-673 -271 c39
0 47 -3 47 -19 0 -70 -190 -444 -296 -582 -78 -102 -183 -205 -194 -192 -4 5
-5 43 -2 86 l4 77 40 0 c48 0 94 26 128 72 26 34 28 62 18 203 l-3 40 45 3
c25 2 59 9 77 17 38 18 81 67 88 101 3 13 7 34 10 47 6 33 -11 96 -36 130
l-22 30 24 -6 c13 -4 45 -7 72 -7z"/>
</g>
</svg>
